<svg width="117" height="118" viewBox="0 0 117 118" fill="none" xmlns="http://www.w3.org/2000/svg">
<g filter="url(#filter0_ii_22_2291)">
<mask id="mask0_22_2291" style="mask-type:alpha" maskUnits="userSpaceOnUse" x="0" y="0" width="118" height="118">
<rect x="0.140625" y="0.861328" width="116.861" height="116.861" rx="25.7917" fill="#14272C"/>
</mask>
<g mask="url(#mask0_22_2291)">
<rect x="0.140625" y="0.861328" width="116.861" height="116.861" rx="25.7917" fill="#FF7A59"/>
<g opacity="0.4" filter="url(#filter1_f_22_2291)">
<path d="M115.391 27.5277C115.391 14.8602 107.592 10.9039 105.804 8.92578C107.098 11.931 110.94 21.251 110.94 27.5277L110.94 88.1268C110.94 94.6089 108.733 105.74 107.973 109.011C109.228 106.995 115.391 103.191 115.391 88.1268L115.391 27.5277Z" fill="white"/>
</g>
<g opacity="0.8" filter="url(#filter2_f_22_2291)">
<path d="M25.7963 1.34961C19.588 1.34961 14.0797 4.92545 12.1016 6.71337C15.1068 5.41998 19.7478 2.8332 25.7963 2.8332L86.3953 2.8332C92.8775 2.8332 101.041 4.35484 104.313 5.11565C102.296 3.8603 95.8903 1.34961 86.3953 1.34961L25.7963 1.34961Z" fill="white"/>
</g>
<path d="M75.2095 48.0663V40.3222C76.2328 39.8439 77.0993 39.0848 77.708 38.1333C78.3167 37.1817 78.6427 36.0768 78.6479 34.9473V34.7694C78.6479 31.4759 75.978 28.806 72.6845 28.806H72.5066C70.9251 28.806 69.4083 29.4343 68.2899 30.5527C67.1716 31.671 66.5433 33.1878 66.5433 34.7694V34.9473C66.5485 36.0768 66.8744 37.1817 67.4831 38.1333C68.0919 39.0848 68.9583 39.8439 69.9817 40.3222V48.0663C67.0405 48.5166 64.2705 49.7361 61.9522 51.6013L40.7137 35.0592C40.8652 34.5125 40.9442 33.9504 40.953 33.3862C40.9556 32.0571 40.564 30.7572 39.8277 29.6508C39.0914 28.5444 38.0435 27.6812 36.8166 27.1704C35.5897 26.6596 34.2388 26.5241 32.9349 26.7812C31.6309 27.0382 30.4325 27.6762 29.4913 28.6144C28.55 29.5526 27.9081 30.7489 27.6468 32.052C27.3855 33.3551 27.5165 34.7064 28.0233 35.935C28.5301 37.1636 29.3898 38.2143 30.4938 38.9542C31.5979 39.6941 32.8965 40.0899 34.2255 40.0917C35.3882 40.0862 36.5292 39.7758 37.5344 39.1914L58.4479 55.4656C56.5692 58.3038 55.589 61.6422 55.6352 65.0456C55.6814 68.449 56.7519 71.7596 58.707 74.5458L52.3462 80.9088C51.832 80.7443 51.2963 80.657 50.7566 80.6497C49.6656 80.6506 48.5995 80.9748 47.6928 81.5814C46.7861 82.188 46.0795 83.0498 45.6625 84.0579C45.2454 85.0659 45.1365 86.1749 45.3495 87.2449C45.5626 88.3148 46.088 89.2975 46.8594 90.0689C47.6308 90.8403 48.6135 91.3657 49.6834 91.5788C50.7533 91.7918 51.8624 91.6829 52.8704 91.2658C53.8785 90.8488 54.7403 90.1422 55.3469 89.2355C55.9535 88.3288 56.2777 87.2627 56.2786 86.1717C56.2715 85.6319 56.1842 85.0962 56.0195 84.5821L62.3123 78.2872C64.3643 79.8669 66.7507 80.9561 69.2886 81.4711C71.8266 81.9861 74.4487 81.9134 76.9542 81.2585C79.4598 80.6036 81.7821 79.3839 83.7434 77.6928C85.7047 76.0017 87.2529 73.8841 88.2694 71.5023C89.2859 69.1204 89.7437 66.5375 89.6078 63.9514C89.4718 61.3653 88.7457 58.8446 87.4851 56.5824C86.2245 54.3203 84.4629 52.3767 82.3351 50.9005C80.2073 49.4244 77.7699 48.4549 75.2095 48.0663ZM72.6011 73.5358C71.4381 73.5678 70.2805 73.3664 69.1967 72.9434C68.1129 72.5205 67.1249 71.8846 66.291 71.0733C65.4571 70.262 64.7943 69.2919 64.3417 68.2201C63.8891 67.1483 63.6559 65.9967 63.6559 64.8333C63.6559 63.6699 63.8891 62.5183 64.3417 61.4465C64.7943 60.3748 65.4571 59.4046 66.291 58.5934C67.1249 57.7821 68.1129 57.1462 69.1967 56.7233C70.2805 56.3003 71.4381 56.0989 72.6011 56.1309C74.8551 56.2098 76.9905 57.1604 78.5575 58.7825C80.1246 60.4046 81.001 62.5715 81.0021 64.8269C81.0033 67.0823 80.1291 69.2501 78.5636 70.8738C76.9982 72.4974 74.8638 73.4502 72.6099 73.5314" fill="white"/>
</g>
</g>
<defs>
<filter id="filter0_ii_22_2291" x="-2.14183" y="-3.70357" width="123.709" height="123.709" filterUnits="userSpaceOnUse" color-interpolation-filters="sRGB">
<feFlood flood-opacity="0" result="BackgroundImageFix"/>
<feBlend mode="normal" in="SourceGraphic" in2="BackgroundImageFix" result="shape"/>
<feColorMatrix in="SourceAlpha" type="matrix" values="0 0 0 0 0 0 0 0 0 0 0 0 0 0 0 0 0 0 127 0" result="hardAlpha"/>
<feOffset dx="4.5649" dy="-4.5649"/>
<feGaussianBlur stdDeviation="3.42368"/>
<feComposite in2="hardAlpha" operator="arithmetic" k2="-1" k3="1"/>
<feColorMatrix type="matrix" values="0 0 0 0 1 0 0 0 0 1 0 0 0 0 1 0 0 0 0.46 0"/>
<feBlend mode="normal" in2="shape" result="effect1_innerShadow_22_2291"/>
<feColorMatrix in="SourceAlpha" type="matrix" values="0 0 0 0 0 0 0 0 0 0 0 0 0 0 0 0 0 0 127 0" result="hardAlpha"/>
<feOffset dx="-2.28245" dy="2.28245"/>
<feGaussianBlur stdDeviation="2.28245"/>
<feComposite in2="hardAlpha" operator="arithmetic" k2="-1" k3="1"/>
<feColorMatrix type="matrix" values="0 0 0 0 1 0 0 0 0 0.89 0 0 0 0 0.89 0 0 0 0.3 0"/>
<feBlend mode="normal" in2="effect1_innerShadow_22_2291" result="effect2_innerShadow_22_2291"/>
</filter>
<filter id="filter1_f_22_2291" x="103.75" y="6.87158" width="13.6947" height="104.194" filterUnits="userSpaceOnUse" color-interpolation-filters="sRGB">
<feFlood flood-opacity="0" result="BackgroundImageFix"/>
<feBlend mode="normal" in="SourceGraphic" in2="BackgroundImageFix" result="shape"/>
<feGaussianBlur stdDeviation="1.0271" result="effect1_foregroundBlur_22_2291"/>
</filter>
<filter id="filter2_f_22_2291" x="10.5038" y="-0.248106" width="95.4064" height="8.5592" filterUnits="userSpaceOnUse" color-interpolation-filters="sRGB">
<feFlood flood-opacity="0" result="BackgroundImageFix"/>
<feBlend mode="normal" in="SourceGraphic" in2="BackgroundImageFix" result="shape"/>
<feGaussianBlur stdDeviation="0.798858" result="effect1_foregroundBlur_22_2291"/>
</filter>
</defs>
</svg>
