<svg width="188" height="186" viewBox="0 0 188 186" fill="none" xmlns="http://www.w3.org/2000/svg">
<g filter="url(#filter0_ii_22_2478)">
<mask id="mask0_22_2478" style="mask-type:alpha" maskUnits="userSpaceOnUse" x="0" y="0" width="186" height="186">
<rect y="0.617676" width="185.309" height="185.309" rx="40.8982" fill="#14272C"/>
</mask>
<g mask="url(#mask0_22_2478)">
<rect y="0.617676" width="185.309" height="185.309" rx="40.8982" fill="#E3B495"/>
<g opacity="0.4" filter="url(#filter1_f_22_2478)">
<path d="M184.531 42.6622C184.531 22.6107 169.886 16.3484 166.528 13.2173C168.957 17.9742 176.173 32.7268 176.173 42.6622L176.173 138.584C176.173 148.844 172.029 166.463 170.601 171.642C172.958 168.45 184.531 162.429 184.531 138.584L184.531 42.6622Z" fill="#F1EFEF"/>
</g>
<g opacity="0.8" filter="url(#filter2_f_22_2478)">
<path d="M39.2784 2.26416C29.4339 2.26416 20.6992 7.93442 17.5625 10.7695C22.3279 8.7186 29.6872 4.61671 39.2784 4.61671H135.371C145.65 4.61671 158.595 7.02959 163.783 8.23603C160.586 6.2454 150.428 2.26416 135.371 2.26416H39.2784Z" fill="#FAFAFA"/>
</g>
</g>
<g clip-path="url(#clip0_22_2478)">
<path d="M118.088 54.3989H101.238L131.951 131.993H148.801L118.088 54.3989ZM69.33 54.3989L38.6172 131.993H55.8259L62.1597 115.758H94.3065L100.521 131.993H117.73L87.0167 54.3989H69.33ZM67.6569 101.314L78.1734 74.0959L88.6898 101.314H67.6569Z" fill="#181818"/>
</g>
</g>
<defs>
<filter id="filter0_ii_22_2478" x="-3.61931" y="-6.62095" width="199.197" height="196.167" filterUnits="userSpaceOnUse" color-interpolation-filters="sRGB">
<feFlood flood-opacity="0" result="BackgroundImageFix"/>
<feBlend mode="normal" in="SourceGraphic" in2="BackgroundImageFix" result="shape"/>
<feColorMatrix in="SourceAlpha" type="matrix" values="0 0 0 0 0 0 0 0 0 0 0 0 0 0 0 0 0 0 127 0" result="hardAlpha"/>
<feOffset dx="7.23863" dy="-7.23863"/>
<feGaussianBlur stdDeviation="5.42897"/>
<feComposite in2="hardAlpha" operator="arithmetic" k2="-1" k3="1"/>
<feColorMatrix type="matrix" values="0 0 0 0 0.911667 0 0 0 0 0.790843 0 0 0 0 0.7111 0 0 0 0.78 0"/>
<feBlend mode="normal" in2="shape" result="effect1_innerShadow_22_2478"/>
<feColorMatrix in="SourceAlpha" type="matrix" values="0 0 0 0 0 0 0 0 0 0 0 0 0 0 0 0 0 0 127 0" result="hardAlpha"/>
<feOffset dx="-3.61931" dy="3.61931"/>
<feGaussianBlur stdDeviation="3.61931"/>
<feComposite in2="hardAlpha" operator="arithmetic" k2="-1" k3="1"/>
<feColorMatrix type="matrix" values="0 0 0 0 0.805 0 0 0 0 0.6676 0 0 0 0 0.576917 0 0 0 0.76 0"/>
<feBlend mode="normal" in2="effect1_innerShadow_22_2478" result="effect2_innerShadow_22_2478"/>
</filter>
<filter id="filter1_f_22_2478" x="163.271" y="9.9599" width="24.5175" height="164.939" filterUnits="userSpaceOnUse" color-interpolation-filters="sRGB">
<feFlood flood-opacity="0" result="BackgroundImageFix"/>
<feBlend mode="normal" in="SourceGraphic" in2="BackgroundImageFix" result="shape"/>
<feGaussianBlur stdDeviation="1.62869" result="effect1_foregroundBlur_22_2478"/>
</filter>
<filter id="filter2_f_22_2478" x="15.029" y="-0.269359" width="151.287" height="13.5724" filterUnits="userSpaceOnUse" color-interpolation-filters="sRGB">
<feFlood flood-opacity="0" result="BackgroundImageFix"/>
<feBlend mode="normal" in="SourceGraphic" in2="BackgroundImageFix" result="shape"/>
<feGaussianBlur stdDeviation="1.26676" result="effect1_foregroundBlur_22_2478"/>
</filter>
<clipPath id="clip0_22_2478">
<rect width="110.184" height="110.184" fill="white" transform="translate(38.6172 38.2349)"/>
</clipPath>
</defs>
</svg>
