<svg width="188" height="186" viewBox="0 0 188 186" fill="none" xmlns="http://www.w3.org/2000/svg">
<g filter="url(#filter0_ii_22_2469)">
<mask id="mask0_22_2469" style="mask-type:alpha" maskUnits="userSpaceOnUse" x="0" y="0" width="186" height="186">
<rect y="0.309082" width="185.309" height="185.309" rx="40.8982" fill="#14272C"/>
</mask>
<g mask="url(#mask0_22_2469)">
<rect y="0.309082" width="185.309" height="185.309" rx="40.8982" fill="#55C8AD"/>
<g opacity="0.4" filter="url(#filter1_f_22_2469)">
<path d="M182.742 42.5936C182.742 22.5064 170.376 16.2329 167.541 13.0962C169.592 17.8616 175.685 32.6405 175.685 42.5936L175.685 138.686C175.685 148.965 172.186 166.615 170.979 171.803C172.97 168.606 182.742 162.574 182.742 138.686L182.742 42.5936Z" fill="white"/>
</g>
<g opacity="0.8" filter="url(#filter2_f_22_2469)">
<path d="M40.6768 1.08447C30.8323 1.08447 22.0977 6.75473 18.9609 9.58986C23.7264 7.53891 31.0856 3.43703 40.6768 3.43703L136.77 3.43703C147.048 3.43703 159.994 5.8499 165.181 7.05634C161.984 5.06572 151.826 1.08447 136.77 1.08447L40.6768 1.08447Z" fill="white"/>
</g>
</g>
<g clip-path="url(#clip0_22_2469)">
<path d="M136.704 83.7851C138.938 76.9589 138.193 69.388 134.593 63.1823C129.131 53.6256 118.082 48.7852 107.281 51.0192C102.564 45.6823 95.6118 42.7036 88.4114 42.7036C77.3626 42.7036 67.6793 49.7781 64.2033 60.2036C57.1271 61.6929 51.044 66.0369 47.4438 72.3667C41.9815 81.9234 43.2229 93.8383 50.5474 102.03C48.3128 108.98 49.1818 116.427 52.782 122.633C58.2444 132.189 69.2932 137.154 80.0938 134.796C84.9354 140.133 91.7633 143.235 98.9637 143.235C110.013 143.235 119.696 136.161 123.172 125.735C130.248 124.246 136.331 119.902 139.931 113.572C145.394 104.016 144.152 91.9766 136.704 83.7851ZM98.9637 136.657C94.4945 136.657 90.2736 135.168 86.9217 132.313C87.0458 132.189 87.4183 132.065 87.5424 131.941L107.53 120.399C108.523 119.778 109.144 118.785 109.144 117.544V89.3702L117.585 94.2106C117.709 94.2106 117.709 94.3347 117.709 94.4588V117.792C117.834 128.218 109.392 136.657 98.9637 136.657ZM58.4927 119.406C56.2581 115.558 55.5132 111.09 56.2581 106.746C56.3822 106.87 56.6305 106.994 56.8788 107.118L76.866 118.661C77.8592 119.281 79.1006 119.281 80.0938 118.661L104.55 104.512V114.317C104.55 114.441 104.55 114.565 104.426 114.565L84.1905 126.232C75.2521 131.445 63.7067 128.342 58.4927 119.406ZM53.2786 75.7177C55.5132 71.8702 58.9892 69.0156 63.086 67.4021V91.2319C63.086 92.3489 63.7067 93.4659 64.6999 94.0865L89.1563 108.235L80.7145 113.076C80.5903 113.076 80.4662 113.2 80.4662 113.076L60.2307 101.409C51.044 96.1964 48.0645 84.6539 53.2786 75.7177ZM122.799 91.8525L98.343 77.7036L106.785 72.8631C106.909 72.8631 107.033 72.739 107.033 72.8631L127.269 84.5298C136.331 89.7425 139.311 101.285 134.097 110.221C131.862 114.069 128.386 116.923 124.289 118.413V94.7071C124.413 93.59 123.793 92.473 122.799 91.8525ZM131.117 79.1929C130.993 79.0688 130.745 78.9447 130.496 78.8206L110.509 67.278C109.516 66.6575 108.275 66.6575 107.281 67.278L82.8249 81.4269V71.622C82.8249 71.4979 82.8249 71.3738 82.9491 71.3738L103.185 59.7071C112.247 54.4944 123.668 57.5972 128.882 66.6575C131.117 70.3809 131.862 74.8489 131.117 79.1929ZM78.2316 96.5688L69.7898 91.7283C69.6656 91.7283 69.6656 91.6042 69.6656 91.4801V68.1468C69.6656 57.7213 78.1074 49.2816 88.5356 49.2816C93.0048 49.2816 97.2257 50.771 100.578 53.6256C100.453 53.7497 100.205 53.8738 99.9568 53.9979L79.9696 65.5405C78.9765 66.161 78.3557 67.1539 78.3557 68.3951V96.5688H78.2316ZM82.8249 86.6397L93.7496 80.3099L104.674 86.6397V99.1751L93.7496 105.505L82.8249 99.1751V86.6397Z" fill="white"/>
</g>
</g>
<defs>
<filter id="filter0_ii_22_2469" x="-3.61931" y="-6.92955" width="199.197" height="196.167" filterUnits="userSpaceOnUse" color-interpolation-filters="sRGB">
<feFlood flood-opacity="0" result="BackgroundImageFix"/>
<feBlend mode="normal" in="SourceGraphic" in2="BackgroundImageFix" result="shape"/>
<feColorMatrix in="SourceAlpha" type="matrix" values="0 0 0 0 0 0 0 0 0 0 0 0 0 0 0 0 0 0 127 0" result="hardAlpha"/>
<feOffset dx="7.23863" dy="-7.23863"/>
<feGaussianBlur stdDeviation="5.42897"/>
<feComposite in2="hardAlpha" operator="arithmetic" k2="-1" k3="1"/>
<feColorMatrix type="matrix" values="0 0 0 0 1 0 0 0 0 1 0 0 0 0 1 0 0 0 0.43 0"/>
<feBlend mode="normal" in2="shape" result="effect1_innerShadow_22_2469"/>
<feColorMatrix in="SourceAlpha" type="matrix" values="0 0 0 0 0 0 0 0 0 0 0 0 0 0 0 0 0 0 127 0" result="hardAlpha"/>
<feOffset dx="-3.61931" dy="3.61931"/>
<feGaussianBlur stdDeviation="3.61931"/>
<feComposite in2="hardAlpha" operator="arithmetic" k2="-1" k3="1"/>
<feColorMatrix type="matrix" values="0 0 0 0 1 0 0 0 0 1 0 0 0 0 1 0 0 0 0.62 0"/>
<feBlend mode="normal" in2="effect1_innerShadow_22_2469" result="effect2_innerShadow_22_2469"/>
</filter>
<filter id="filter1_f_22_2469" x="164.284" y="9.83881" width="21.7159" height="165.222" filterUnits="userSpaceOnUse" color-interpolation-filters="sRGB">
<feFlood flood-opacity="0" result="BackgroundImageFix"/>
<feBlend mode="normal" in="SourceGraphic" in2="BackgroundImageFix" result="shape"/>
<feGaussianBlur stdDeviation="1.62869" result="effect1_foregroundBlur_22_2469"/>
</filter>
<filter id="filter2_f_22_2469" x="16.4274" y="-1.44905" width="151.287" height="13.5724" filterUnits="userSpaceOnUse" color-interpolation-filters="sRGB">
<feFlood flood-opacity="0" result="BackgroundImageFix"/>
<feBlend mode="normal" in="SourceGraphic" in2="BackgroundImageFix" result="shape"/>
<feGaussianBlur stdDeviation="1.26676" result="effect1_foregroundBlur_22_2469"/>
</filter>
<clipPath id="clip0_22_2469">
<rect width="101.836" height="101.836" fill="white" transform="translate(42.7344 42.0435)"/>
</clipPath>
</defs>
</svg>
