<svg width="117" height="118" viewBox="0 0 117 118" fill="none" xmlns="http://www.w3.org/2000/svg">
<g filter="url(#filter0_ii_22_2305)">
<mask id="mask0_22_2305" style="mask-type:alpha" maskUnits="userSpaceOnUse" x="0" y="0" width="118" height="118">
<rect x="0.140625" y="0.584473" width="116.861" height="116.861" rx="25.7917" fill="#14272C"/>
</mask>
<g mask="url(#mask0_22_2305)">
<rect x="0.140625" y="0.584473" width="116.861" height="116.861" rx="25.7917" fill="white"/>
<g opacity="0.4" filter="url(#filter1_f_22_2305)">
<path d="M115.383 27.2489C115.383 14.5813 107.584 10.6251 105.797 8.64697C107.09 11.6522 110.932 20.9722 110.932 27.2489L110.932 87.848C110.932 94.3301 108.726 105.461 107.965 108.732C109.22 106.716 115.383 102.912 115.383 87.848L115.383 27.2489Z" fill="white"/>
</g>
<g opacity="0.8" filter="url(#filter2_f_22_2305)">
<path d="M25.7885 1.0708C19.5802 1.0708 14.0719 4.64664 12.0938 6.43456C15.099 5.14117 19.74 2.55439 25.7885 2.55439L86.3875 2.55439C92.8697 2.55439 101.033 4.07603 104.305 4.83684C102.289 3.5815 95.8825 1.0708 86.3875 1.0708L25.7885 1.0708Z" fill="white"/>
</g>
<g clip-path="url(#clip0_22_2305)">
<mask id="mask1_22_2305" style="mask-type:luminance" maskUnits="userSpaceOnUse" x="21" y="33" width="75" height="53">
<path d="M21.7422 33.5981H95.1967V85.0075H21.7422V33.5981Z" fill="white"/>
</mask>
<g mask="url(#mask1_22_2305)">
<path fill-rule="evenodd" clip-rule="evenodd" d="M52.3006 39.2069C54.6699 36.7385 57.969 35.2068 61.6174 35.2068C66.467 35.2068 70.6988 37.9111 72.9515 41.9264C74.9672 41.0257 77.1505 40.5615 79.3582 40.5642C88.1057 40.5642 95.1973 47.7176 95.1973 56.5423C95.1973 65.367 88.1057 72.5206 79.3582 72.5206C78.29 72.5206 77.2469 72.4132 76.2379 72.2096C74.254 75.7484 70.472 78.1399 66.1323 78.1399C64.377 78.1423 62.6443 77.7435 61.0667 76.974C59.0555 81.706 54.3681 85.0236 48.9068 85.0236C43.2181 85.0236 38.3698 81.4247 36.5101 76.3771C35.6813 76.552 34.8364 76.64 33.9893 76.6395C27.2165 76.6395 21.7266 71.0921 21.7266 64.2491C21.7266 59.6626 24.1928 55.6585 27.8585 53.5164C27.0818 51.7281 26.6822 49.7988 26.6845 47.8491C26.6845 39.9787 33.0734 33.5981 40.9543 33.5981C45.5812 33.5981 49.6934 35.7977 52.3006 39.2069Z" fill="#00A1E0"/>
</g>
<path fill-rule="evenodd" clip-rule="evenodd" d="M32.3683 60.2672C32.3221 60.3876 32.3847 60.4127 32.3996 60.4341C32.5375 60.5339 32.6776 60.6063 32.8191 60.6875C33.5682 61.0841 34.2763 61.2005 35.0159 61.2005C36.5231 61.2005 37.4592 60.3992 37.4592 59.1089V59.0835C37.4592 57.8903 36.4024 57.4568 35.4119 57.1439L35.2826 57.1021C34.5357 56.8597 33.891 56.6499 33.891 56.1578V56.1327C33.891 55.7113 34.2679 55.4017 34.8518 55.4017C35.501 55.4017 36.2704 55.6173 36.7666 55.8913C36.7666 55.8913 36.9129 55.9858 36.9661 55.8446C36.9949 55.7682 37.2457 55.0928 37.2724 55.0197C37.3011 54.9406 37.2508 54.8809 37.1993 54.8501C36.6327 54.5049 35.8501 54.27 35.04 54.27L34.8896 54.2706C33.5101 54.2706 32.547 55.1047 32.547 56.2984V56.3241C32.547 57.582 33.6095 57.991 34.6048 58.2753L34.7646 58.3249C35.4894 58.5474 36.1154 58.7396 36.1154 59.2495V59.2749C36.1154 59.7419 35.7086 60.0888 35.0535 60.0888C34.7994 60.0888 33.9885 60.0845 33.1122 59.5303C33.0062 59.4685 32.9457 59.4239 32.8639 59.374C32.8207 59.3478 32.7127 59.3005 32.6657 59.442L32.3683 60.2672ZM54.4313 60.2672C54.3851 60.3876 54.4478 60.4127 54.4631 60.4341C54.6005 60.5339 54.7409 60.6063 54.8821 60.6875C55.6315 61.0841 56.3396 61.2005 57.079 61.2005C58.5861 61.2005 59.5225 60.3992 59.5225 59.1089V59.0835C59.5225 57.8903 58.466 57.4568 57.4752 57.1439L57.3459 57.1021C56.599 56.8597 55.9541 56.6499 55.9541 56.1578V56.1327C55.9541 55.7113 56.3312 55.4017 56.9154 55.4017C57.5643 55.4017 58.3334 55.6173 58.8296 55.8913C58.8296 55.8913 58.9759 55.9858 59.0294 55.8446C59.058 55.7682 59.309 55.0928 59.3355 55.0197C59.3644 54.9406 59.3139 54.8809 59.2626 54.8501C58.6957 54.5049 57.9134 54.27 57.1033 54.27L56.9526 54.2706C55.5735 54.2706 54.6103 55.1047 54.6103 56.2984V56.3241C54.6103 57.582 55.6725 57.991 56.6681 58.2753L56.8276 58.3249C57.5527 58.5474 58.1787 58.7396 58.1787 59.2495V59.2749C58.1787 59.7419 57.7717 60.0888 57.117 60.0888C56.8625 60.0888 56.0515 60.0845 55.1755 59.5303C55.0695 59.4685 55.0074 59.4258 54.9269 59.374C54.8997 59.3567 54.7725 59.307 54.729 59.442L54.4313 60.2672ZM69.4932 57.7394C69.4932 58.4683 69.3571 59.0438 69.0899 59.4496C68.8242 59.8518 68.4233 60.0475 67.8643 60.0475C67.3052 60.0475 66.9065 59.8521 66.6452 59.4501C66.3814 59.0441 66.2475 58.4683 66.2475 57.7394C66.2475 57.0111 66.3814 56.4374 66.6452 56.0358C66.9065 55.6376 67.3052 55.4443 67.8643 55.4443C68.4233 55.4443 68.8242 55.6379 69.0899 56.036C69.3576 56.4374 69.4932 57.0111 69.4932 57.7394ZM70.7517 56.3878C70.6278 55.9696 70.4353 55.6017 70.1791 55.2948C69.9224 54.987 69.5976 54.7395 69.2127 54.5602C68.8283 54.3807 68.3748 54.2897 67.8643 54.2897C67.3538 54.2897 66.9 54.3807 66.5153 54.5602C66.1309 54.7395 65.8059 54.987 65.5492 55.2953C65.2933 55.6028 65.1003 55.9702 64.9769 56.3878C64.8541 56.8027 64.7917 57.2576 64.7917 57.7394C64.7917 58.2216 64.8541 58.6767 64.9769 59.0911C65.1003 59.5084 65.2927 59.8761 65.5495 60.1841C65.8062 60.4924 66.132 60.7378 66.5159 60.9127C66.9008 61.0876 67.3543 61.1767 67.8643 61.1767C68.3745 61.1767 68.8275 61.0876 69.2121 60.9127C69.5966 60.7378 69.9218 60.4924 70.1791 60.1841C70.4353 59.8772 70.6278 59.5089 70.7517 59.0911C70.8742 58.6759 70.9366 58.221 70.9366 57.7394C70.9366 57.2581 70.8742 56.803 70.7517 56.3878ZM81.0819 59.8523C81.0406 59.73 80.9212 59.7762 80.9212 59.7762C80.7385 59.8461 80.5441 59.9109 80.3363 59.9433C80.1268 59.9762 79.8949 59.9927 79.6468 59.9927C79.0386 59.9927 78.554 59.8116 78.2082 59.4536C77.8608 59.0954 77.6656 58.5166 77.6678 57.7338C77.6697 57.0222 77.8419 56.486 78.1507 56.0773C78.4569 55.6713 78.9244 55.4629 79.5461 55.4629C80.0652 55.4629 80.4612 55.5231 80.8762 55.6532C80.8762 55.6532 80.9747 55.6962 81.0219 55.5663C81.1323 55.2605 81.2139 55.0429 81.3316 54.7068C81.365 54.611 81.283 54.5705 81.253 54.5589C81.09 54.4952 80.7047 54.3907 80.414 54.3467C80.1422 54.3051 79.8244 54.2835 79.47 54.2835C78.9417 54.2835 78.4706 54.374 78.0679 54.5532C77.6659 54.7322 77.325 54.9794 77.0547 55.2869C76.7845 55.5949 76.5788 55.9629 76.4428 56.3802C76.3064 56.7954 76.2376 57.2511 76.2376 57.7343C76.2376 58.7776 76.5192 59.6207 77.0744 60.2383C77.6316 60.8582 78.4674 61.1729 79.5583 61.1729C80.2026 61.1729 80.8637 61.0425 81.3399 60.8552C81.3399 60.8552 81.4306 60.8115 81.3912 60.7056L81.0819 59.8523ZM83.283 57.0405C83.3432 56.6353 83.4542 56.2987 83.6272 56.0358C83.8883 55.6376 84.2856 55.4181 84.8447 55.4181C85.404 55.4181 85.7725 55.6379 86.0381 56.036C86.2136 56.2992 86.2903 56.6499 86.3202 57.0411L83.283 57.0405ZM87.5183 56.1505C87.4111 55.7472 87.1471 55.3398 86.9735 55.1536C86.6995 54.8582 86.4312 54.6515 86.1647 54.5373C85.7791 54.3734 85.3644 54.2892 84.9454 54.2897C84.4138 54.2897 83.9309 54.3796 83.5392 54.5632C83.147 54.7473 82.8174 54.9989 82.559 55.3115C82.3001 55.6238 82.106 55.9955 81.9821 56.4172C81.858 56.8364 81.7953 57.2935 81.7953 57.7761C81.7953 58.2669 81.8604 58.7245 81.9883 59.1359C82.1176 59.5508 82.3252 59.9149 82.6055 60.2181C82.8854 60.5223 83.2458 60.761 83.6763 60.9273C84.1048 61.0933 84.6252 61.1794 85.2221 61.1775C86.4525 61.1735 87.0996 60.8992 87.3668 60.7515C87.4141 60.7251 87.4586 60.6794 87.403 60.548L87.1244 59.7684C87.0818 59.652 86.9641 59.6941 86.9641 59.6941C86.6588 59.808 86.2266 60.0113 85.2159 60.0092C84.5556 60.0081 84.0664 59.8129 83.7589 59.5081C83.4445 59.1963 83.29 58.7385 83.2639 58.0917L87.5215 58.0949C87.5215 58.0949 87.6338 58.0939 87.6454 57.9843C87.65 57.9389 87.7915 57.1096 87.5183 56.1505ZM49.1778 57.0405C49.238 56.6353 49.3492 56.2987 49.522 56.0358C49.7833 55.6376 50.1801 55.4181 50.7397 55.4181C51.2991 55.4181 51.6675 55.6379 51.9332 56.036C52.1084 56.2992 52.185 56.6499 52.215 57.0411L49.1778 57.0405ZM53.413 56.1505C53.3061 55.7472 53.0419 55.3398 52.8685 55.1536C52.5945 54.8582 52.3265 54.6515 52.0598 54.5373C51.6741 54.3735 51.2594 54.2893 50.8404 54.2897C50.3089 54.2897 49.8259 54.3796 49.4342 54.5632C49.042 54.7473 48.7124 54.9989 48.4535 55.3115C48.1952 55.6238 48.0011 55.9955 47.8766 56.4172C47.7527 56.8364 47.6904 57.2935 47.6904 57.7761C47.6904 58.2669 47.7549 58.7245 47.8836 59.1359C48.0127 59.5508 48.2205 59.9149 48.5002 60.2181C48.7804 60.5223 49.1405 60.761 49.5711 60.9273C49.9998 61.0933 50.5197 61.1794 51.1171 61.1775C52.3473 61.1735 52.9946 60.8992 53.2619 60.7515C53.3088 60.7251 53.3536 60.6794 53.2978 60.548L53.0194 59.7684C52.9765 59.652 52.8588 59.6941 52.8588 59.6941C52.5538 59.808 52.1216 60.0113 51.1106 60.0092C50.4506 60.0081 49.9612 59.8129 49.6537 59.5081C49.3395 59.1963 49.1848 58.7385 49.1586 58.0917L53.4165 58.0949C53.4165 58.0949 53.5288 58.0939 53.5405 57.9843C53.545 57.9389 53.6865 57.1096 53.413 56.1505ZM39.9733 59.8291C39.8062 59.6957 39.783 59.6631 39.7276 59.5764C39.6431 59.446 39.6 59.2603 39.6 59.0225C39.6 58.6486 39.7241 58.3792 39.98 58.1983C39.9773 58.1989 40.3472 57.8793 41.2151 57.8906C41.6022 57.8975 41.9885 57.9304 42.3713 57.9891V59.9247H42.3718C42.3718 59.9247 41.8306 60.041 41.2213 60.0777C40.3553 60.1298 39.9706 59.8283 39.9733 59.8291ZM41.6678 56.8364C41.495 56.8237 41.2712 56.8175 41.0029 56.8175C40.6382 56.8175 40.2854 56.8629 39.9541 56.952C39.6216 57.0416 39.3224 57.1804 39.0652 57.3642C38.8081 57.5479 38.5967 57.7882 38.4473 58.0666C38.2964 58.3476 38.2194 58.6778 38.2194 59.0479C38.2194 59.4255 38.285 59.7527 38.4146 60.02C38.5414 60.2849 38.7322 60.5141 38.9699 60.6867C39.2066 60.859 39.4987 60.9853 39.8375 61.0625C40.172 61.1389 40.551 61.1775 40.9651 61.1775C41.4024 61.1775 41.8373 61.1408 42.2587 61.0698C42.6176 61.0079 42.9752 60.9385 43.3312 60.8614C43.4732 60.8287 43.6298 60.7858 43.6298 60.7858C43.7351 60.7591 43.727 60.6465 43.727 60.6465L43.7245 56.7522C43.7245 55.8981 43.4967 55.2653 43.0478 54.8723C42.601 54.4811 41.9431 54.2835 41.092 54.2835C40.7723 54.2835 40.2589 54.3267 39.9506 54.3885C39.9506 54.3885 39.0209 54.5689 38.6381 54.8688C38.6381 54.8688 38.5539 54.9206 38.5998 55.038L38.9013 55.8479C38.9388 55.9529 39.0412 55.917 39.0412 55.917C39.0412 55.917 39.0733 55.9043 39.1111 55.8819C39.9301 55.4365 40.9664 55.4497 40.9664 55.4497C41.4264 55.4497 41.7809 55.5428 42.019 55.7251C42.2514 55.9035 42.3694 56.1721 42.3694 56.7398V56.9199C42.0041 56.8669 41.6678 56.8364 41.6678 56.8364ZM76.0149 54.6426C76.021 54.6283 76.0242 54.613 76.0243 54.5975C76.0244 54.582 76.0214 54.5666 76.0154 54.5523C76.0094 54.538 76.0007 54.525 75.9896 54.5142C75.9785 54.5034 75.9653 54.4949 75.9509 54.4892C75.8783 54.4617 75.5163 54.3853 75.2372 54.368C74.7019 54.3345 74.4052 54.4247 74.139 54.5446C73.875 54.6636 73.5826 54.8561 73.4196 55.0756L73.419 54.5562C73.419 54.4849 73.3686 54.4274 73.2968 54.4274H72.2051C72.1344 54.4274 72.0831 54.4849 72.0831 54.5562V60.9086C72.0831 60.9429 72.0968 60.9758 72.121 61C72.1452 61.0242 72.1781 61.0379 72.2124 61.0379H73.3313C73.3656 61.0379 73.3984 61.0242 73.4226 61C73.4468 60.9757 73.4604 60.9429 73.4604 60.9086V57.7354C73.4604 57.3091 73.5073 56.8845 73.601 56.6175C73.6933 56.3532 73.8188 56.1427 73.9743 55.9912C74.1217 55.8451 74.302 55.7365 74.5002 55.6748C74.6859 55.6215 74.8782 55.5945 75.0714 55.5944C75.2941 55.5944 75.5392 55.6516 75.5392 55.6516C75.6213 55.6608 75.6669 55.6106 75.6947 55.5366C75.7679 55.342 75.9752 54.7586 76.0149 54.6426Z" fill="#FFFFFE"/>
<path fill-rule="evenodd" clip-rule="evenodd" d="M65.5152 51.6981C65.377 51.6564 65.2365 51.623 65.0943 51.5982C64.9031 51.5663 64.7094 51.5513 64.5155 51.5534C63.7454 51.5534 63.1383 51.771 62.712 52.2008C62.2887 52.6273 62.0007 53.277 61.8563 54.132L61.8042 54.4206H60.8375C60.8375 54.4206 60.7195 54.4157 60.6947 54.5445L60.5359 55.4299C60.5249 55.5147 60.5613 55.5676 60.6747 55.567H61.6157L60.6609 60.8967C60.5861 61.3259 60.5006 61.679 60.4058 61.9465C60.3124 62.2105 60.2212 62.4084 60.1089 62.552C60.0001 62.691 59.897 62.7933 59.7191 62.853C59.5722 62.9024 59.4032 62.9251 59.218 62.9251C59.1149 62.9251 58.9778 62.9078 58.8765 62.8875C58.7753 62.8676 58.7227 62.8449 58.6468 62.813C58.6468 62.813 58.5364 62.7709 58.493 62.8816C58.4576 62.972 58.2068 63.6618 58.1771 63.7471C58.1469 63.8313 58.1893 63.8977 58.2427 63.9169C58.368 63.9617 58.4611 63.9903 58.6317 64.0305C58.8687 64.0864 59.0685 64.0899 59.2556 64.0899C59.6475 64.0899 60.0047 64.0348 60.3008 63.9279C60.5988 63.8202 60.8583 63.6326 61.0877 63.3786C61.3358 63.1046 61.4918 62.8176 61.6411 62.4262C61.7888 62.0383 61.9146 61.5567 62.0153 60.9955L62.9747 55.567H64.3773C64.3773 55.567 64.4956 55.5714 64.5201 55.4431L64.6789 54.5577C64.6899 54.4729 64.6538 54.42 64.5398 54.4206H63.1785C63.1852 54.3898 63.247 53.9109 63.4033 53.4601C63.47 53.2676 63.5955 53.1124 63.7019 53.0057C63.8012 52.9042 63.9235 52.8281 64.0585 52.7838C64.2065 52.7381 64.3607 52.7159 64.5155 52.718C64.6438 52.718 64.7696 52.7334 64.8654 52.7533C64.9974 52.7814 65.0487 52.7963 65.0832 52.8065C65.222 52.8489 65.2406 52.8079 65.2679 52.7407L65.5935 51.8466C65.6269 51.7505 65.5454 51.71 65.5152 51.6981ZM46.4907 60.908C46.4907 60.9793 46.4399 61.0373 46.3687 61.0373H45.2395C45.1679 61.0373 45.1172 60.9793 45.1172 60.908V51.8193C45.1172 51.7483 45.1679 51.6908 45.2395 51.6908H46.3687C46.4399 51.6908 46.4907 51.7483 46.4907 51.8193V60.908Z" fill="#FFFFFE"/>
</g>
</g>
</g>
<defs>
<filter id="filter0_ii_22_2305" x="-2.14183" y="-3.98043" width="123.709" height="123.709" filterUnits="userSpaceOnUse" color-interpolation-filters="sRGB">
<feFlood flood-opacity="0" result="BackgroundImageFix"/>
<feBlend mode="normal" in="SourceGraphic" in2="BackgroundImageFix" result="shape"/>
<feColorMatrix in="SourceAlpha" type="matrix" values="0 0 0 0 0 0 0 0 0 0 0 0 0 0 0 0 0 0 127 0" result="hardAlpha"/>
<feOffset dx="4.5649" dy="-4.5649"/>
<feGaussianBlur stdDeviation="3.42368"/>
<feComposite in2="hardAlpha" operator="arithmetic" k2="-1" k3="1"/>
<feColorMatrix type="matrix" values="0 0 0 0 0.888333 0 0 0 0 0.888333 0 0 0 0 0.888333 0 0 0 0.7 0"/>
<feBlend mode="normal" in2="shape" result="effect1_innerShadow_22_2305"/>
<feColorMatrix in="SourceAlpha" type="matrix" values="0 0 0 0 0 0 0 0 0 0 0 0 0 0 0 0 0 0 127 0" result="hardAlpha"/>
<feOffset dx="-2.28245" dy="2.28245"/>
<feGaussianBlur stdDeviation="2.28245"/>
<feComposite in2="hardAlpha" operator="arithmetic" k2="-1" k3="1"/>
<feColorMatrix type="matrix" values="0 0 0 0 0.881667 0 0 0 0 0.881667 0 0 0 0 0.881667 0 0 0 0.9 0"/>
<feBlend mode="normal" in2="effect1_innerShadow_22_2305" result="effect2_innerShadow_22_2305"/>
</filter>
<filter id="filter1_f_22_2305" x="103.742" y="6.59277" width="13.6947" height="104.194" filterUnits="userSpaceOnUse" color-interpolation-filters="sRGB">
<feFlood flood-opacity="0" result="BackgroundImageFix"/>
<feBlend mode="normal" in="SourceGraphic" in2="BackgroundImageFix" result="shape"/>
<feGaussianBlur stdDeviation="1.0271" result="effect1_foregroundBlur_22_2305"/>
</filter>
<filter id="filter2_f_22_2305" x="10.496" y="-0.526914" width="95.4064" height="8.5592" filterUnits="userSpaceOnUse" color-interpolation-filters="sRGB">
<feFlood flood-opacity="0" result="BackgroundImageFix"/>
<feBlend mode="normal" in="SourceGraphic" in2="BackgroundImageFix" result="shape"/>
<feGaussianBlur stdDeviation="0.798858" result="effect1_foregroundBlur_22_2305"/>
</filter>
<clipPath id="clip0_22_2305">
<rect width="73.6964" height="51.5605" fill="white" transform="translate(21.7266 33.4653)"/>
</clipPath>
</defs>
</svg>
